# xmcd
#
# Track frame offsets: 
#        150
#        13982
#        25013
#        34684
#        44804
#        53409
#        62272
#        75749
#        93113
#        106860
#        119609
#        130836
#        145670
#        156907
#        165283
#        174344
#        182789
#        190837
#        201909
#        209560
#        216670
#        226514
#        246261
#        261068
#        270277
#        277818
#        287792
#        297210
#        308926
#        318479
#
# Disc length: 4367 seconds
#
# Revision: 0
# Processed by: cddbd v1.5.2PL0 Copyright (c) Steve Scherf et al.
# Submitted via: ExactAudioCopy v0.95b3
#
DISCID=a8110d1e
DTITLE=Johnny Rebel et al - Klassic Klan Kompositions
DYEAR=1900
DGENRE=Country
TTITLE0=Some Niggers Never Die
TTITLE1=Stay Away From Dixie
TTITLE2=Nigger Hatin' Me
TTITLE3=Who Likes A Nigger
TTITLE4=Nigger - Nigger
TTITLE5=Move Them Niggers North
TTITLE6=Kajun Ku Klux Klan
TTITLE7=Lookin# For A Handout
TTITLE8=Federal Aid
TTITLE9=Keep A Workin' Big Jim
TTITLE10=Coon Town
TTITLE11=Still Lookin For A Handout
TTITLE12=Cowboys and Niggers (James Crow)
TTITLE13=Johnny Rebel (Colonel Lou)
TTITLE14=The South's Gonna Rise Again (Jessie James)
TTITLE15=Stand Up and Be Counted (White Riders)
TTITLE16=Dixie (White Riders)
TTITLE17=The Great Society (Ski King)
TTITLE18=We Don't Want Niggers In Our School (Coon Hunters)
TTITLE19=Nigger - Nigger (Coon Hunters)
TTITLE20=NAACP Prayer (Colonel Lou)
TTITLE21=Ship Those Niggers Back (Odis and The 3 Bigots)
TTITLE22=We Is Non-Violent Niggers (Odis and The 3 Bigots)
TTITLE23=Marty and His Beatnik Band (Son Of Mississippi)
TTITLE24=The South Shall Rise Again (The Confederater)
TTITLE25=Segragation Wagon (Col. Sharecropper)
TTITLE26=Move Them Niggers North (Col. Sharecropper)
TTITLE27=She Ran Off With A Nigger (Texas BS Band)
TTITLE28=Move Them Niggers North (not listed)
TTITLE29=Nigger Hattin' Me (Big Reb)
EXTD=
EXTT0=
EXTT1=
EXTT2=
EXTT3=
EXTT4=
EXTT5=
EXTT6=
EXTT7=
EXTT8=
EXTT9=
EXTT10=
EXTT11=
EXTT12=
EXTT13=
EXTT14=
EXTT15=
EXTT16=
EXTT17=
EXTT18=
EXTT19=
EXTT20=
EXTT21=
EXTT22=
EXTT23=
EXTT24=
EXTT25=
EXTT26=
EXTT27=
EXTT28=
EXTT29=
PLAYORDER=
